# xmcd
#
# Track frame offsets:
#	150
#	15173
#	31227
#	46254
#
# Disc length: 828 seconds
#
# Revision: 0
# Processed by: cddbd v1.5.2PL0 Copyright (c) Steve Scherf et al.
# Submitted via: audiograbber 1.83.01
#
DISCID=1e033a04
DTITLE=Andrea and Wilfried Peetz - Ich hab mit dir neut Nacht....
DYEAR=2000
DGENRE=Volksmusik
TTITLE0=Ich hab mit dir neut Nacht in den Himmel geseh'n
TTITLE1=Ich hab noch 1000 Träume
TTITLE2=Ich hab mit dir neut Nacht in den Himmel geseh'n  (karaoke)
TTITLE3=Ich hab noch 1000 Träume (Instrumental)
EXTD=<http://www.hit-radio24.de>
EXTT0=
EXTT1=
EXTT2=
EXTT3=
PLAYORDER=
